<?xml version="1.0" encoding="UTF-8"?>
<svg width="988px" height="1360px" viewBox="0 0 988 1360" version="1.1" xmlns="http://www.w3.org/2000/svg" xmlns:xlink="http://www.w3.org/1999/xlink">
    <title>emsys-logo</title>
    <defs>
        <path d="M664.96224,1094.15078 C713.145359,1107.422 743.626241,1120.28516 756.404886,1132.74027 L756.404886,1132.74027 L739.741601,1188.544 L799.165503,1205.16849 L906.564266,1225.13358 L772.781258,1245.83463 L874.426267,1329.95108 L659.604763,1258.97711 L731.511421,1233.03635 C693.12902,1224.66001 663.535336,1218.34753 642.730371,1214.09889 C621.925405,1209.85025 597.440494,1206.09217 569.275637,1202.82465 L569.275637,1202.82465 L467.630125,1198.75584 L354.82435,1209.66901 L235.341253,1233.03635 C288.866676,1246.95964 315.629388,1253.92129 315.629388,1253.92129 C315.629388,1253.92129 290.415448,1265.34611 239.987569,1288.19575 L239.987569,1288.19575 L102.137873,1347 L217.660772,1245.83463 C126.26372,1232.03393 85.8056791,1225.13358 96.2866503,1225.13358 C112.008107,1225.13358 217.660772,1192.13993 217.660772,1188.544 C217.660772,1186.14671 211.836616,1167.54547 200.188304,1132.74027 C226.905014,1117.00925 263.528284,1103.22847 310.058114,1091.39794 C306.88631,1092.12632 303.960301,1092.82591 301.280292,1093.49651 L300.754505,1093.6285 L255.890321,959.220544 L155.931721,667.122751 L122.037755,584.630147 L371.529264,515 L371,515 L371,413 L353,413 L353,389 L417,389 L417,324 L393,324 L393,306 L585,306 L585,324 L562,324 L562,389 L625,389 L625,413 L608,413 L608,515 L603.522264,515 L855.037755,586.383296 L813.815312,680 L609.209755,617.419033 L813.815312,681.078576 L672.725332,1096.12565 C669.600993,1095.31102 666.525772,1094.51909 663.499669,1093.74984 Z M490.591855,1069.478 C460.632796,1069.99964 433.978932,1071.43628 410.630264,1073.78793 C413.247016,1073.60841 415.765429,1073.45059 418.230959,1073.2957 C431.257264,1072.47736 443.357049,1071.24324 460.714256,1070.35503 C464.784421,1070.14675 478.423251,1070.06561 492.289232,1069.96618 L494.736627,1069.94842 C495.008399,1069.94642 495.280047,1069.94441 495.551501,1069.94238 L497.177329,1069.9301 C497.788656,1069.92541 498.39827,1069.92065 499.005357,1069.91581 C496.216534,1069.76445 493.412102,1069.61862 490.591855,1069.478 Z M488.5,580.5 L155.931721,667.122751 L489.437755,580.786033 L488.5,580.5 Z M495,34 L495,141 L511,141 L511,150 L495,150 L494.999038,168.085 L503.140864,171.255745 C507.977845,173.822945 511.742075,176.38497 514.433555,178.941819 C517.125034,181.498668 520.300629,185.289284 523.960338,190.313666 C525.199014,192.322203 526.904249,195.003887 529.076045,198.358717 C532.333739,203.390963 534.629324,208.303777 536.097943,210.910595 C539.701623,217.307176 544.454114,221.749906 550.355415,224.238787 L550.836416,224.436307 L556.844701,228.012305 C550.77683,228.937476 544.118849,229.400061 536.870759,229.400061 C534.811617,229.400061 531.692664,228.199287 527.513898,225.797739 L527.092489,225.553581 L526.646701,225.249875 L526.362832,225.08355 L523.705701,223.245875 L516.790773,218.535034 C514.786095,216.960397 512.654525,215.980165 510.396064,215.594338 L509.971115,215.528961 C507.612183,215.205845 502.751123,215.198152 495.387937,215.505881 L494.999038,215.521 L495,271 L511,271 L511,280 L495,280 L495,305 L485,305 L485,280 L469,280 L469,271 L485,271 L485,150 L470,150 L470,141 L485,141 L484.998317,90.6565303 C477.475939,90.3886447 472.504725,90.3971379 470.084675,90.6820099 C467.590257,90.975636 465.243708,91.8645285 463.045028,93.3486874 L455.985038,97.4811752 L453.164194,99.157855 L452.862038,99.3091752 L452.411,99.5748184 C447.878285,101.849618 444.513719,102.987018 442.317302,102.987018 C434.835402,102.987018 427.962647,102.57666 421.699038,101.755945 L427.901139,98.5836875 C434.223278,96.4123586 439.29458,92.4128203 443.115047,86.5850726 C444.631041,84.2725722 447.000677,79.9144307 450.363458,75.4503421 C452.605312,72.474283 454.365555,70.0953701 455.644187,68.3136034 C459.421952,63.8564898 462.699985,60.4938467 465.478286,58.2256741 C468.256588,55.9575014 472.142245,53.6847377 477.135258,51.407383 L484.999038,48.776 L485,34 L495,34 Z M494.999038,175.091 L494.999038,211.834 L495.18388,211.750379 C497.54197,210.632188 499.560684,208.720886 501.240024,206.016472 C503.878986,201.766679 502.860425,192.228158 501.240024,186.588843 C500.458688,183.869641 499.127273,181.067829 497.24578,178.183406 C496.668227,177.315204 496.040453,176.439487 495.362538,175.556333 L494.999038,175.091 Z M484.997255,55.4106458 C484.369828,56.120547 483.784995,56.8250313 483.242755,57.5240985 C481.288724,60.0928462 479.907006,62.5880049 479.097415,65.0093247 C477.424742,70.0119426 476.373325,78.4735343 479.097415,82.243512 C480.747202,84.5267192 482.71429,86.1726797 484.998679,87.1813936 L484.997255,55.4106458 Z" id="path-1"></path>
        <filter x="-9.8%" y="-1.8%" width="121.6%" height="106.5%" filterUnits="objectBoundingBox" id="filter-2">
            <feMorphology radius="12" operator="dilate" in="SourceAlpha" result="shadowSpreadOuter1"></feMorphology>
            <feOffset dx="0" dy="2" in="shadowSpreadOuter1" result="shadowOffsetOuter1"></feOffset>
            <feGaussianBlur stdDeviation="3" in="shadowOffsetOuter1" result="shadowBlurOuter1"></feGaussianBlur>
            <feComposite in="shadowBlurOuter1" in2="SourceAlpha" operator="out" result="shadowBlurOuter1"></feComposite>
            <feColorMatrix values="0 0 0 0 0   0 0 0 0 0   0 0 0 0 0  0 0 0 0.5 0" type="matrix" in="shadowBlurOuter1"></feColorMatrix>
        </filter>
        <linearGradient x1="2.40386178%" y1="13.6077504%" x2="32.5848594%" y2="55.1896249%" id="linearGradient-3">
            <stop stop-color="#FFFFFF" offset="0%"></stop>
            <stop stop-color="#000000" offset="100%"></stop>
        </linearGradient>
        <linearGradient x1="18.1828579%" y1="27.2694058%" x2="50%" y2="60.8419736%" id="linearGradient-4">
            <stop stop-color="#FFFFFF" stop-opacity="0.997514205" offset="0%"></stop>
            <stop stop-color="#000000" stop-opacity="0.5" offset="100%"></stop>
        </linearGradient>
        <rect id="path-5" x="22.4390908" y="22.6714737" width="86" height="66"></rect>
        <linearGradient x1="2.40386178%" y1="12.7464251%" x2="32.5848594%" y2="55.312452%" id="linearGradient-6">
            <stop stop-color="#FFFFFF" offset="0%"></stop>
            <stop stop-color="#000000" offset="100%"></stop>
        </linearGradient>
        <linearGradient x1="18.1828579%" y1="26.7314222%" x2="50%" y2="61.0985795%" id="linearGradient-7">
            <stop stop-color="#FFFFFF" stop-opacity="0.997514205" offset="0%"></stop>
            <stop stop-color="#000000" stop-opacity="0.5" offset="100%"></stop>
        </linearGradient>
        <rect id="path-8" x="126.439091" y="22.6714737" width="85" height="66"></rect>
        <radialGradient cx="50%" cy="9.67259957%" fx="50%" fy="9.67259957%" r="71.7641536%" gradientTransform="translate(0.500000,0.096726),scale(0.783764,1.000000),rotate(50.381152),translate(-0.500000,-0.096726)" id="radialGradient-9">
            <stop stop-color="#E1E1E1" offset="0%"></stop>
            <stop stop-color="#727272" offset="100%"></stop>
        </radialGradient>
        <radialGradient cx="50%" cy="-21.6764169%" fx="50%" fy="-21.6764169%" r="194.282153%" gradientTransform="translate(0.500000,-0.216764),scale(0.269638,1.000000),rotate(69.271397),translate(-0.500000,0.216764)" id="radialGradient-10">
            <stop stop-color="#FF0000" offset="0%"></stop>
            <stop stop-color="#940000" offset="100%"></stop>
        </radialGradient>
        <linearGradient x1="83.3102232%" y1="51.7745084%" x2="96.3553305%" y2="41.7446302%" id="linearGradient-11">
            <stop stop-color="#BABABA" offset="0%"></stop>
            <stop stop-color="#F9F9F9" offset="100%"></stop>
            <stop stop-color="#F1F1F1" offset="100%"></stop>
        </linearGradient>
        <linearGradient x1="83.3102232%" y1="52.2608707%" x2="96.3553305%" y2="39.4819751%" id="linearGradient-12">
            <stop stop-color="#BABABA" offset="0%"></stop>
            <stop stop-color="#F9F9F9" offset="100%"></stop>
            <stop stop-color="#F1F1F1" offset="100%"></stop>
        </linearGradient>
        <path d="M366.462245,99.1449672 L366.554099,587.144967" id="path-13"></path>
        <filter x="-650.0%" y="-3.3%" width="1804.6%" height="107.4%" filterUnits="objectBoundingBox" id="filter-14">
            <feMorphology radius="3" operator="dilate" in="SourceAlpha" result="shadowSpreadOuter1"></feMorphology>
            <feOffset dx="4" dy="2" in="shadowSpreadOuter1" result="shadowOffsetOuter1"></feOffset>
            <feMorphology radius="3" operator="erode" in="SourceAlpha" result="shadowInner"></feMorphology>
            <feOffset dx="4" dy="2" in="shadowInner" result="shadowInner"></feOffset>
            <feComposite in="shadowOffsetOuter1" in2="shadowInner" operator="out" result="shadowOffsetOuter1"></feComposite>
            <feGaussianBlur stdDeviation="4" in="shadowOffsetOuter1" result="shadowBlurOuter1"></feGaussianBlur>
            <feColorMatrix values="0 0 0 0 0.991225091   0 0 0 0 0.991225091   0 0 0 0 0.991225091  0 0 0 0.766034747 0" type="matrix" in="shadowBlurOuter1"></feColorMatrix>
        </filter>
        <radialGradient cx="-9.40030568%" cy="-29.1965755%" fx="-9.40030568%" fy="-29.1965755%" r="106.088921%" gradientTransform="translate(-0.094003,-0.291966),scale(0.524232,1.000000),rotate(-56.660548),scale(1.000000,1.074231),translate(0.094003,0.291966)" id="radialGradient-15">
            <stop stop-color="#D1D1D1" offset="0%"></stop>
            <stop stop-color="#23448C" offset="100%"></stop>
        </radialGradient>
        <radialGradient cx="-9.40030568%" cy="-29.1965755%" fx="-9.40030568%" fy="-29.1965755%" r="102.687152%" gradientTransform="translate(-0.094003,-0.291966),scale(0.589400,1.000000),rotate(-59.666998),scale(1.000000,1.074231),translate(0.094003,0.291966)" id="radialGradient-16">
            <stop stop-color="#D1D1D1" offset="0%"></stop>
            <stop stop-color="#23448C" offset="100%"></stop>
        </radialGradient>
        <radialGradient cx="43.4202529%" cy="-7.33491438%" fx="43.4202529%" fy="-7.33491438%" r="29.2195273%" gradientTransform="translate(0.434203,-0.073349),scale(0.537138,1.000000),rotate(98.632760),scale(1.000000,4.512010),translate(-0.434203,0.073349)" id="radialGradient-17">
            <stop stop-color="#D1D1D1" offset="0%"></stop>
            <stop stop-color="#B9BEC8" offset="36.8012108%"></stop>
            <stop stop-color="#23448C" offset="100%"></stop>
        </radialGradient>
        <radialGradient cx="43.4202529%" cy="-7.33491438%" fx="43.4202529%" fy="-7.33491438%" r="29.1705789%" gradientTransform="translate(0.434203,-0.073349),scale(0.582122,1.000000),rotate(97.974581),scale(1.000000,4.512010),translate(-0.434203,0.073349)" id="radialGradient-18">
            <stop stop-color="#D1D1D1" offset="0%"></stop>
            <stop stop-color="#B9BEC8" offset="36.8012108%"></stop>
            <stop stop-color="#23448C" offset="100%"></stop>
        </radialGradient>
        <radialGradient cx="43.4202529%" cy="-7.33491438%" fx="43.4202529%" fy="-7.33491438%" r="29.4624525%" gradientTransform="translate(0.434203,-0.073349),scale(0.407077,1.000000),rotate(101.327971),scale(1.000000,4.512010),translate(-0.434203,0.073349)" id="radialGradient-19">
            <stop stop-color="#D1D1D1" offset="0%"></stop>
            <stop stop-color="#B9BEC8" offset="36.8012108%"></stop>
            <stop stop-color="#23448C" offset="100%"></stop>
        </radialGradient>
        <radialGradient cx="43.4202529%" cy="-7.33491438%" fx="43.4202529%" fy="-7.33491438%" r="29.5086394%" gradientTransform="translate(0.434203,-0.073349),scale(0.391469,1.000000),rotate(101.767233),scale(1.000000,4.512010),translate(-0.434203,0.073349)" id="radialGradient-20">
            <stop stop-color="#D1D1D1" offset="0%"></stop>
            <stop stop-color="#B9BEC8" offset="36.8012108%"></stop>
            <stop stop-color="#23448C" offset="100%"></stop>
        </radialGradient>
        <radialGradient cx="43.4202529%" cy="-7.33491438%" fx="43.4202529%" fy="-7.33491438%" r="29.314124%" gradientTransform="translate(0.434203,-0.073349),scale(0.473318,1.000000),rotate(99.775605),scale(1.000000,4.512010),translate(-0.434203,0.073349)" id="radialGradient-21">
            <stop stop-color="#D1D1D1" offset="0%"></stop>
            <stop stop-color="#B9BEC8" offset="36.8012108%"></stop>
            <stop stop-color="#23448C" offset="100%"></stop>
        </radialGradient>
        <radialGradient cx="43.4202529%" cy="-7.33491438%" fx="43.4202529%" fy="-7.33491438%" r="29.3795084%" gradientTransform="translate(0.434203,-0.073349),scale(0.440431,1.000000),rotate(100.489879),scale(1.000000,4.512010),translate(-0.434203,0.073349)" id="radialGradient-22">
            <stop stop-color="#D1D1D1" offset="0%"></stop>
            <stop stop-color="#B9BEC8" offset="36.8012108%"></stop>
            <stop stop-color="#23448C" offset="100%"></stop>
        </radialGradient>
        <linearGradient x1="44.7183661%" y1="50%" x2="9.85599196%" y2="3.78007375%" id="linearGradient-23">
            <stop stop-color="#000000" offset="0%"></stop>
            <stop stop-color="#FFFFFF" offset="63.9867532%"></stop>
            <stop stop-color="#FCFCFC" offset="99.9440651%"></stop>
            <stop stop-color="#FFFFFF" offset="100%"></stop>
        </linearGradient>
        <radialGradient cx="50%" cy="0%" fx="50%" fy="0%" r="116.71471%" gradientTransform="translate(0.500000,0.000000),scale(0.341837,1.000000),rotate(43.731963),translate(-0.500000,-0.000000)" id="radialGradient-24">
            <stop stop-color="#FF0000" offset="0%"></stop>
            <stop stop-color="#940000" offset="100%"></stop>
        </radialGradient>
        <path d="M0,53.2137693 L6.20210056,50.0415123 C12.5242395,47.8701834 17.5955423,43.8706451 21.4160089,38.0428974 C22.9320029,35.730397 25.301639,31.3722555 28.6644196,26.9081669 C30.9062734,23.9321078 32.6665165,21.5531949 33.9451489,19.7714282 C37.7229136,15.3143146 41.0009466,11.9516715 43.7792481,9.68349885 C46.5575495,7.41532621 50.4432066,5.14256252 55.4362194,2.8652078 L64,-3.55271368e-15 L64,6.09142694 C60.6379616,9.73645861 58.3864772,13.2402506 57.2455468,16.602803 C55.534151,21.6466317 54.4583932,30.1779285 57.2455468,33.9789627 C59.1036491,36.5129854 61.3551335,38.2684789 64,39.245443 L64,42.1398347 C56.0848431,41.8462085 50.8800555,41.8462085 48.3856372,42.1398347 C45.8912189,42.4334608 43.5446699,43.3223533 41.3459903,44.8065122 L30.7119614,51.0326432 C26.1792471,53.307443 22.8146811,54.4448428 20.6182634,54.4448428 C13.1363635,54.4448428 6.26360904,54.034485 0,53.2137693 Z" id="path-25"></path>
        <filter x="-12.2%" y="-7.1%" width="120.8%" height="120.9%" filterUnits="objectBoundingBox" id="filter-26">
            <feMorphology radius="1" operator="dilate" in="SourceAlpha" result="shadowSpreadOuter1"></feMorphology>
            <feOffset dx="0" dy="2" in="shadowSpreadOuter1" result="shadowOffsetOuter1"></feOffset>
            <feMorphology radius="1.5" operator="erode" in="SourceAlpha" result="shadowInner"></feMorphology>
            <feOffset dx="0" dy="2" in="shadowInner" result="shadowInner"></feOffset>
            <feComposite in="shadowOffsetOuter1" in2="shadowInner" operator="out" result="shadowOffsetOuter1"></feComposite>
            <feGaussianBlur stdDeviation="1" in="shadowOffsetOuter1" result="shadowBlurOuter1"></feGaussianBlur>
            <feColorMatrix values="0 0 0 0 0   0 0 0 0 0   0 0 0 0 0  0 0 0 0.5 0" type="matrix" in="shadowBlurOuter1"></feColorMatrix>
        </filter>
        <radialGradient cx="65.6767807%" cy="50%" fx="65.6767807%" fy="50%" r="27.7732674%" gradientTransform="translate(0.656768,0.500000),scale(0.843750,1.000000),rotate(49.716329),scale(1.000000,1.931975),translate(-0.656768,-0.500000)" id="radialGradient-27">
            <stop stop-color="#00BDFF" offset="0%"></stop>
            <stop stop-color="#002846" offset="100%"></stop>
        </radialGradient>
        <filter x="-150.0%" y="-75.0%" width="400.0%" height="250.0%" filterUnits="objectBoundingBox" id="filter-28">
            <feGaussianBlur stdDeviation="2" in="SourceGraphic"></feGaussianBlur>
        </filter>
        <path d="M0,59.9864309 L6.00828492,56.4104321 C12.132857,53.9627522 17.0456816,49.4541818 20.7467587,42.8847207 C22.2153778,40.2779021 24.5109628,35.365088 27.7686565,30.3328426 C29.9404523,26.9780124 31.6456878,24.2963288 32.884363,22.2877918 C36.5440725,17.2634092 39.719667,13.4727933 42.4111465,10.9159442 C45.1026261,8.359095 48.8668564,5.79707048 53.7038375,3.22987061 L62,-4.00487724e-15 L62,6.86669946 C58.7430253,10.9756443 56.5618998,14.9253735 55.4566234,18.7158871 C53.7987088,24.4016575 52.7565684,34.0187558 55.4566234,38.3035579 C57.2566601,41.1600926 59.4377856,43.1390125 62,44.2403176 L62,47.5030864 C54.3321918,47.1720896 49.2900538,47.1720896 46.8735861,47.5030864 C44.4571183,47.8340831 42.183899,48.8361074 40.0539281,50.5091592 L29.7522126,57.5277069 C25.3611456,60.0920266 22.1017223,61.3741865 19.9739427,61.3741865 C12.7258522,61.3741865 6.06787126,60.9116013 0,59.9864309 Z" id="path-29"></path>
        <filter x="-12.0%" y="-6.5%" width="120.8%" height="118.7%" filterUnits="objectBoundingBox" id="filter-30">
            <feMorphology radius="1" operator="dilate" in="SourceAlpha" result="shadowSpreadOuter1"></feMorphology>
            <feOffset dx="0" dy="2" in="shadowSpreadOuter1" result="shadowOffsetOuter1"></feOffset>
            <feMorphology radius="1.5" operator="erode" in="SourceAlpha" result="shadowInner"></feMorphology>
            <feOffset dx="0" dy="2" in="shadowInner" result="shadowInner"></feOffset>
            <feComposite in="shadowOffsetOuter1" in2="shadowInner" operator="out" result="shadowOffsetOuter1"></feComposite>
            <feGaussianBlur stdDeviation="1" in="shadowOffsetOuter1" result="shadowBlurOuter1"></feGaussianBlur>
            <feColorMatrix values="0 0 0 0 0   0 0 0 0 0   0 0 0 0 0  0 0 0 0.5 0" type="matrix" in="shadowBlurOuter1"></feColorMatrix>
        </filter>
        <radialGradient cx="65.6767807%" cy="50%" fx="65.6767807%" fy="50%" r="26.2113882%" gradientTransform="translate(0.656768,0.500000),scale(0.981818,1.000000),rotate(53.931078),scale(1.000000,1.931975),translate(-0.656768,-0.500000)" id="radialGradient-31">
            <stop stop-color="#00BDFF" offset="0%"></stop>
            <stop stop-color="#002846" offset="100%"></stop>
        </radialGradient>
        <filter x="-146.2%" y="-69.4%" width="392.3%" height="238.8%" filterUnits="objectBoundingBox" id="filter-32">
            <feGaussianBlur stdDeviation="2" in="SourceGraphic"></feGaussianBlur>
        </filter>
        <path d="M73.3009618,0 L73.3009618,107 L89.3009618,107 L89.3009618,116 L73.3009618,116 L73.3009618,237 L89.3009618,237 L89.3009618,246 L73.3009618,246 L73.3009618,271 L63.3009618,271 L63.3009618,246 L47.3009618,246 L47.3009618,237 L63.3009618,237 L63.3009618,116 L48.3009618,116 L48.3009618,107 L63.3009618,107 L63.3009618,0 L73.3009618,0 Z" id="path-33"></path>
        <filter x="-7.1%" y="-1.1%" width="114.3%" height="102.2%" filterUnits="objectBoundingBox" id="filter-34">
            <feMorphology radius="2" operator="erode" in="SourceAlpha" result="shadowSpreadInner1"></feMorphology>
            <feGaussianBlur stdDeviation="1.5" in="shadowSpreadInner1" result="shadowBlurInner1"></feGaussianBlur>
            <feOffset dx="-1" dy="1" in="shadowBlurInner1" result="shadowOffsetInner1"></feOffset>
            <feComposite in="shadowOffsetInner1" in2="SourceAlpha" operator="arithmetic" k2="-1" k3="1" result="shadowInnerInner1"></feComposite>
            <feColorMatrix values="0 0 0 0 0.592156863   0 0 0 0 0.592156863   0 0 0 0 0.592156863  0 0 0 1 0" type="matrix" in="shadowInnerInner1"></feColorMatrix>
        </filter>
    </defs>
    <g id="Page-1" stroke="none" stroke-width="1" fill="none" fill-rule="evenodd">
        <g id="logo-outline">
            <use fill="black" fill-opacity="1" filter="url(#filter-2)" xlink:href="#path-1"></use>
            <path stroke="#FFFFFF" stroke-width="10" d="M590,301 L590,329 L567,329 L567,384 L630,384 L630,418 L613,418 L613,512.492 L861.928491,583.1415 L820.083,678.173 L679.079,1092.968 L680.430427,1093.36792 C720.781259,1105.32791 746.908607,1117.1117 759.065959,1128.3721 L759.470466,1128.75147 L762.068158,1131.24961 L745.988272,1185.0996 L800.298199,1200.29339 L936.347547,1225.58454 L784.539097,1249.07477 L898.072101,1343.02915 L644.294975,1259.18479 L713.474314,1234.22793 C683.256756,1227.67115 659.341981,1222.59438 641.729954,1218.99778 C621.436393,1214.85358 597.620692,1211.18136 570.286719,1207.97646 L570.286719,1207.97646 L568.885467,1207.81304 L467.771523,1203.76551 L355.546606,1214.62248 L257.858751,1233.72732 L330.569283,1252.64114 L243.556456,1292.06797 L242.000558,1292.77297 L75.2369636,1363.91138 L206.26604,1249.16699 C166.016093,1243.06038 136.57038,1238.41709 117.928813,1235.23767 C107.677218,1233.4892 100.653262,1232.17419 96.8553801,1231.29997 C93.7527921,1230.58579 92.1599545,1229.77567 91.7050155,1229.42745 L91.7050155,1229.42745 L86.2329874,1225.23906 L91.9122344,1221.33625 C93.1357372,1220.49546 94.3562577,1220.13358 96.2866503,1220.13358 C102.87384,1220.13358 125.601799,1214.08378 149.419213,1207.01933 L150.973913,1206.55722 C152.529848,1206.09377 154.089025,1205.62648 155.647269,1205.15673 C171.531821,1200.36815 187.31969,1195.27602 198.748115,1191.23828 C204.01258,1189.37831 208.335349,1187.74962 211.281049,1186.48425 C211.500345,1186.39005 211.710955,1186.2985 211.912578,1186.20958 L212.09,1186.13 L212.058161,1185.98334 C210.633435,1179.69053 204.998578,1162.86725 195.781501,1135.32721 L195.446795,1134.32712 C195.014424,1133.03519 194.589824,1131.7664 194.178651,1130.51906 C195.341967,1129.80568 196.499541,1129.10988 197.65137,1128.43168 C221.713958,1114.26343 253.705117,1101.62602 293.650324,1090.57633 L294.396,1090.37 L251.153536,960.821553 L151.249736,668.883893 L115.2748,581.326533 L366,511.352 L366,418 L348,418 L348,384 L412,384 L412,329 L388,329 L388,301 L590,301 Z M500,29 L500,136 L516,136 L516,155 L499.999734,155 L499.99922,164.666489 L505.22345,166.701008 C510.668823,169.56917 514.871409,172.461286 517.877262,175.316784 C520.732878,178.029559 524.118044,182.037786 528.00187,187.369856 C529.440564,189.674565 531.126469,192.325274 533.273312,195.641559 C535.670134,199.343993 537.571907,202.981784 539.01884,205.758395 C539.567665,206.811569 540.04432,207.728868 540.454189,208.456391 C543.451592,213.776822 547.356557,217.541589 552.277742,219.623023 L552.277742,219.623023 L553.076803,219.951151 L570.219804,230.154288 C560.910373,232.968697 549.795347,234.400061 536.870759,234.400061 C534.278807,234.400061 530.267518,233.159493 524.929917,230.079505 L524.929917,230.079505 L523.90286,229.430646 L520.890602,227.378091 L513.824089,222.563982 C512.506259,221.502978 511.115885,220.804021 509.623527,220.535194 C507.658062,220.271099 504.621244,220.223088 500.3543,220.335111 L500.3543,220.335111 L500.035075,266 L516,266 L516,285 L500,285 L500,310 L480,310 L480,285 L464,285 L464,266 L480,266 L480,155 L465,155 L465,136 L479.999833,136 L479.998479,95.5090073 C475.511921,95.406141 472.401477,95.4438135 470.669206,95.6477247 C468.909462,95.85487 467.264003,96.5089456 465.720547,97.5761798 L465.720547,97.5761798 L458.525334,101.787819 L455.652969,103.495122 L454.745761,103.997346 C449.159644,106.810958 444.99528,107.987018 442.317302,107.987018 C434.59951,107.987018 427.510393,107.560141 421.049445,106.713568 C416.400284,106.104392 411.492831,105.201438 406.327591,104.002071 L406.327591,104.002071 L425.954813,93.9631191 C431.373533,92.181034 435.688674,88.7934488 438.933494,83.8437932 C439.352759,83.204245 439.840247,82.39763 440.401652,81.4718126 C441.904625,78.9932489 443.880165,75.7468928 446.369785,72.441924 C448.582406,69.504672 450.319976,67.1569836 451.581937,65.3984491 C455.853349,60.3337906 459.358031,56.7675489 462.31626,54.3524852 C465.401855,51.8334419 469.717116,49.2781896 475.302569,46.7481368 L475.302569,46.7481368 L479.999272,45.176523 L480.000325,29 L500,29 Z" fill="#FFFAFA" fill-rule="evenodd"></path>
        </g>
        <g id="logo" transform="translate(15.637873, 34.000000)">
            <g id="main-cabin" transform="translate(354.923036, 378.328526)">
                <rect id="Rectangle" stroke="#979797" fill="#D8D8D8" x="0.939090836" y="1.17147371" width="236" height="101"></rect>
                <g id="window1">
                    <use fill-opacity="0.3" fill="url(#linearGradient-3)" xlink:href="#path-5"></use>
                    <rect stroke="#000000" stroke-width="2" stroke-linejoin="square" fill-opacity="0.85" fill="url(#linearGradient-4)" x="23.4390908" y="23.6714737" width="84" height="64"></rect>
                </g>
                <g id="window2">
                    <use fill-opacity="0.3" fill="url(#linearGradient-6)" xlink:href="#path-8"></use>
                    <rect stroke="#000000" stroke-width="2" stroke-linejoin="square" fill-opacity="0.85" fill="url(#linearGradient-7)" x="127.439091" y="23.6714737" width="83" height="64"></rect>
                </g>
            </g>
            <g id="boat" transform="translate(106.399882, 448.355033)">
                <path d="M368.508172,98.1449672 L33.8939659,184.767718 L133.852566,476.865511 L178.716749,611.273464 C193.871949,607.456769 217.087262,602.690162 248.362688,596.973645 C279.638114,591.257127 319.701918,587.973567 368.554099,587.122964 C396.172534,588.500084 422.274368,590.376252 446.859602,592.751469 C471.444835,595.126686 506.05416,602.133069 550.687577,613.770618 L691.777557,198.723544 L368.508172,98.1449672 Z" id="main" stroke="#333333" stroke-width="2" fill="url(#radialGradient-9)"></path>
                <polygon id="bar" fill="url(#radialGradient-10)" points="0 102.275114 366.462245 0 733 104.028264 691.777557 197.644967 366.462245 98.1449672 33.8939659 184.767718"></polygon>
                <polygon id="square2" fill="url(#linearGradient-11)" transform="translate(278.335064, 94.916808) rotate(-9.000000) translate(-278.335064, -94.916808) " points="228.681721 81.0773032 333.505287 73.9241118 329.887474 106.562153 223.164842 115.909504"></polygon>
                <polygon id="square1" fill="url(#linearGradient-12)" transform="translate(469.627331, 98.360442) scale(-1, 1) rotate(-9.000000) translate(-469.627331, -98.360442) " points="419.370562 87.8070818 525.345898 74.4293639 520.389536 105.722602 413.908764 122.291519"></polygon>
                <g id="divider" opacity="0.267373728">
                    <use fill="black" fill-opacity="1" filter="url(#filter-14)" xlink:href="#path-13"></use>
                    <use stroke="#535151" stroke-width="4" xlink:href="#path-13"></use>
                </g>
            </g>
            <g id="drops" transform="translate(0.000000, 839.941781)">
                <g id="Group" transform="translate(485.391319, 43.445614)">
                    <path d="M188.983676,54.7905877 C239.811236,52.4069267 277.604312,65.2851307 287.593286,71.384253 C289.570439,72.5914742 292.267477,73.4799439 295.714396,74.6068585 C300.958575,76.3213579 307.962729,78.6100763 316.814555,83.5503732 C317.270433,83.8048034 317.749188,84.0596919 318.240965,84.3149582 C319.134325,84.7740706 319.688579,85.0530916 320.206452,85.313795 C322.686794,86.566831 324.737037,87.6246089 325.577831,88.5476106 C325.785438,89.3349023 325.506803,89.490139 325.10453,89.6608935 C322.483908,90.7732818 319.421854,92.1648473 316.306082,93.6265254 L316.306082,93.6265254 L315.527438,93.992722 C311.369965,95.952786 307.175258,98.0058979 303.862005,99.6564133 L303.862005,99.6564133 L303.251633,99.9608917 L303.251633,99.9608917 L302.641891,100.265924 C299.754135,101.712705 297.74404,102.750755 297.366401,102.971423 C295.898975,103.828894 294.325808,104.736013 292.692505,105.677812 C286.838947,109.053104 280.214937,112.873204 274.909778,116.451061 C274.419999,116.781373 273.930266,117.111814 273.440614,117.442342 L273.440614,117.442342 L271.972524,118.433754 L270.506166,119.424752 C267.247853,121.62756 264.006903,123.8235 260.817358,125.98461 C244.89054,136.775995 230.246353,146.698691 221.127689,152.266834 C201.263355,164.396621 174.258111,188.048946 161.367205,199.341159 C159.461805,201.010256 157.865318,202.408765 156.646526,203.459137 C156.189714,203.117418 156.101016,202.699395 156.024576,202.169964 C155.811632,200.695086 155.77268,198.449927 155.977319,195.689888 C156.294217,191.415764 157.197104,185.918301 158.959954,180.126057 C161.320846,172.368807 165.223647,164.079213 171.340074,157.501103 C174.695626,153.892266 182.332402,146.665919 187.068359,142.56738 C191.87597,138.406831 196.160922,135.439015 199.110221,133.395899 C200.852614,132.188864 202.135898,131.295854 202.80342,130.668955 C203.168126,130.326443 203.365797,130.03268 203.433024,129.808189 C202.921906,128.895639 201.720354,129.045373 199.172262,129.880749 C194.124786,131.535533 183.914409,134.883017 170.987191,138.323247 C167.281208,139.309494 159.523777,142.779964 151.620826,146.678712 L151.620826,146.678712 L150.522109,147.222996 L150.522109,147.222996 L149.558362,147.704101 C148.755829,148.106151 147.955318,148.510735 147.160933,148.915676 L146.210874,149.401638 C138.795891,153.207498 132.067205,156.968002 129.433239,158.87531 C120.116552,165.621712 109.646872,175.357313 100.029371,184.302411 C96.3162291,187.755951 92.7302712,191.091241 89.3872491,194.089617 C79.3725347,203.071874 71.5202856,208.545071 69.2888934,209.723759 C61.6835188,213.741145 53.6802467,214.78443 46.5136992,213.725115 C38.5356228,212.545846 31.5908753,208.762951 27.4095014,203.569856 C24.2679353,199.66816 21.0474831,190.076813 20.6922776,187.73651 C20.6014206,187.13789 20.5107311,186.236601 20.5008851,185.086236 C20.5357218,180.59527 21.5764505,173.761617 26.5707253,165.800307 C30.3351863,159.799428 37.8182113,152.827819 45.2036469,146.731766 C61.6637226,133.145364 87.3215055,121.875254 101.056436,115.838451 C105.182532,114.024941 108.240007,112.679489 109.666052,111.882984 C109.984876,111.704908 110.369827,111.471789 110.816299,111.188633 C110.256687,111.03988 109.795059,110.952126 109.429913,110.946519 C108.63668,110.934337 107.376444,111.295657 105.640474,111.81331 C98.5884424,113.916172 83.3211826,118.473755 71.3762922,119.026169 C67.5636374,119.202492 64.0929383,118.972177 61.3522139,118.106015 C59.0331266,117.373105 57.2412727,116.185979 56.2623637,114.364277 C54.8000863,111.672762 52.6615309,107.767417 52.8926262,102.54841 C53.0396363,99.2283663 54.1483931,95.3812912 57.0396011,91.087736 C60.506032,85.9399526 62.4675181,84.1770056 68.8384481,80.1066806 C73.9891221,76.8159652 81.231117,73.6967579 85.0520411,72.0498158 C86.3684728,71.4823911 87.287548,71.0838688 87.5965819,70.9089437 C95.6775217,66.33482 134.421518,59.2084308 138.710176,58.4236536 C154.745351,55.489393 173.065586,55.1362373 183.197454,54.9399438 C185.655587,54.8923202 187.633763,54.8538945 188.983676,54.7905877 Z" id="lg-drop1" stroke="#979797" fill="url(#radialGradient-15)" transform="translate(173.188220, 134.306238) scale(-1, 1) rotate(23.000000) translate(-173.188220, -134.306238) "></path>
                    <path d="M237.806214,57.9967135 C242.883229,52.0936001 249.883229,48.7602667 258.806214,47.9967135" id="Path" stroke-opacity="0.5" stroke="#ECE6E6" stroke-width="3" transform="translate(248.306214, 52.996714) rotate(37.000000) translate(-248.306214, -52.996714) "></path>
                    <path d="M299.642879,119.926132 C305.686945,112.252085 314.020279,107.918751 324.642879,106.926132" id="Path-Copy" stroke-opacity="0.5" stroke="#ECE6E6" stroke-width="3" transform="translate(312.142879, 113.426132) rotate(57.000000) translate(-312.142879, -113.426132) "></path>
                </g>
                <g id="Group" transform="translate(95.043669, 15.238280)">
                    <g id="water2" transform="translate(179.500000, 173.000000) scale(-1, 1) rotate(5.000000) translate(-179.500000, -173.000000) ">
                        <path d="M133.391704,75.2979115 C150.372347,73.0697609 170.040672,74.2676186 180.91813,74.9286528 C183.558179,75.0890913 185.68276,75.2180683 187.12925,75.2597879 C241.59549,76.8307 283.4059,96.3001709 294.69716,104.808687 C296.926398,106.488527 299.899089,107.833483 303.698066,109.544381 C309.496019,112.155533 317.239725,115.642014 327.209413,122.605737 C327.943718,123.118641 328.728656,123.636912 329.527542,124.154199 L329.527542,124.154199 L329.962366,124.434873 L330.615432,124.854126 L331.266354,125.271119 C331.482243,125.409506 331.697111,125.547439 331.909615,125.684404 L331.909615,125.684404 L332.333236,125.958285 C334.5158,127.374313 336.460823,128.703403 337.252347,129.812884 C337.462583,130.107572 337.611659,130.380517 337.533056,130.632634 C337.457099,130.876265 337.188441,131.051319 336.791325,131.219884 C333.93774,132.431159 330.588902,133.982645 327.204919,135.612962 L327.204919,135.612962 L326.424976,135.989796 L326.424976,135.989796 L325.644154,136.369138 L324.865568,136.749371 C324.476602,136.939806 324.088589,137.130481 323.701832,137.321193 L323.701832,137.321193 L322.931987,137.701667 C322.55395,137.888918 322.177978,138.075757 321.804741,138.2618 L321.062117,138.632715 C314.414922,141.959367 308.799595,144.945821 308.137302,145.360032 C306.635868,146.299058 305.025156,147.290597 303.352872,148.320045 C297.357286,152.01089 290.572697,156.188271 285.185236,160.181106 C283.727434,161.261534 282.270158,162.343373 280.816232,163.423972 L280.816232,163.423972 L279.363737,164.503903 C278.880008,164.863681 278.396766,165.223216 277.914069,165.582444 L277.914069,165.582444 L276.468087,166.658832 C275.746084,167.196418 275.025661,167.733005 274.307156,168.268271 L274.307156,168.268271 L272.872921,169.33686 L270.880849,170.821326 C254.717481,182.866504 239.855887,193.942155 230.547206,200.076677 C212.938822,211.680793 190.317519,233.645077 176.245891,247.705555 L175.193819,248.757946 C173.468498,250.485614 171.88567,252.079231 170.472844,253.501751 C169.317293,254.665231 168.27563,255.714044 167.363274,256.627523 L167.363274,256.627523 L166.683996,257.30638 C166.293093,257.696206 165.930659,258.055985 165.59818,258.383633 C165.290768,257.963116 165.090828,257.282721 164.911414,256.358121 C164.548518,254.487951 164.303312,251.666333 164.276404,248.220609 C164.234888,242.904216 164.714801,236.110392 166.095208,229.025114 C167.942022,219.545883 171.398421,209.539534 177.393298,201.869149 C180.678871,197.665293 188.244686,189.329483 192.970838,184.637909 C197.767182,179.876655 202.108359,176.556832 205.096265,174.271338 C206.866113,172.917554 208.168521,171.915488 208.831778,171.191137 C209.189037,170.80097 209.375472,170.463666 209.42711,170.192543 C208.857444,169.213221 207.614057,169.345412 204.951679,170.159232 C199.671863,171.773133 188.991501,175.037955 175.397881,178.17556 C171.780634,179.010473 164.603914,182.201898 157.074391,185.980896 L156.090542,186.476996 L156.090542,186.476996 L155.104272,186.978887 C154.775288,187.147053 154.446164,187.316038 154.117164,187.485698 L154.117164,187.485698 L153.030288,188.048828 L151.94728,188.615178 C143.450908,193.078706 135.433104,197.774936 132.512072,200.128659 C123.093303,207.718161 112.701259,218.93653 103.155553,229.244245 C99.4710351,233.222889 95.912731,237.065306 92.5855596,240.508914 C82.6249204,250.818133 74.6758774,256.94458 72.3829047,258.215476 C64.5748042,262.543173 56.0736781,263.123748 48.2844942,261.163833 C39.5652467,258.969896 31.7343223,253.596012 26.7555591,246.716005 C23.0072002,241.536258 18.6604953,229.208119 18.0658502,226.23856 C17.3886406,222.856687 16.1798576,212.013927 22.4305784,199.281316 C25.941837,192.128942 33.3653271,184.09602 40.7614739,177.148808 C57.2437652,161.666967 83.822816,149.898658 98.0498819,143.593899 C101.188343,142.203082 103.730516,141.075175 105.440491,140.230393 L105.886038,140.007033 C106.310597,139.790722 106.671662,139.595608 106.964447,139.422098 C107.239112,139.259328 107.559309,139.052978 107.922519,138.806289 C107.476056,138.636616 107.090096,138.527801 106.759711,138.494481 C105.901045,138.407882 104.572717,138.746006 102.741293,139.23978 C95.3484931,141.232969 79.3433199,145.555076 66.5519441,145.176479 C62.4663644,145.055555 58.711151,144.455851 55.6854206,143.129284 C53.0809658,141.987415 51.0218225,140.305113 49.7884416,137.909377 C49.6972862,137.732316 49.6004123,137.545938 49.4987964,137.35044 C46.979905,132.50437 41.4668328,121.941829 48.5191216,108.743377 C51.7838525,102.63339 53.7334415,100.608553 60.2153372,96.1017934 C65.4564216,92.4577504 72.9605225,89.2149221 76.9194314,87.5022639 C78.2896813,86.909482 79.2457456,86.492256 79.5636457,86.3008372 C87.8415297,81.3164344 128.852105,75.8935845 133.391704,75.2979115 Z" id="lg-drop1" stroke="#979797" fill="url(#radialGradient-16)" transform="translate(177.525754, 168.123198) scale(-1, 1) rotate(23.000000) translate(-177.525754, -168.123198) "></path>
                        <path d="M246.394651,72.8932559 C251.414141,66.4388708 258.909201,63.2882418 268.879828,63.4413691" id="Path" stroke-opacity="0.5" stroke="#ECE6E6" stroke-width="3" transform="translate(257.637239, 68.164651) rotate(37.000000) translate(-257.637239, -68.164651) "></path>
                        <path d="M309.453941,151.698145 C315.910584,143.856223 325.522382,139.98699 338.289335,140.090447" id="Path-Copy" stroke-opacity="0.5" stroke="#ECE6E6" stroke-width="3" transform="translate(323.871638, 145.893285) rotate(57.000000) translate(-323.871638, -145.893285) "></path>
                    </g>
                </g>
                <g id="Group" transform="translate(28.000000, 85.034335)" fill="url(#radialGradient-17)" stroke="#979797">
                    <g id="drop2" transform="translate(58.500000, 64.000000) rotate(-52.000000) translate(-58.500000, -64.000000) ">
                        <path d="M9.33512312,33.6160584 C15.0978766,32.9230828 22.8978753,33.4774513 31.092897,34.0554301 C31.8297361,34.107398 32.5697565,34.1595901 33.3121014,34.211154 L33.3121014,34.211154 L34.4829053,34.2917105 C34.8738154,34.3183125 35.2651057,34.344608 35.657221,34.3705103 L35.657221,34.3705103 L36.8318479,34.4466476 C39.9703889,34.6458842 43.111329,34.8091293 46.16675,34.8714716 C51.4151708,34.9785596 88.8534333,42.3729695 95.4783183,49.0278699 C96.2878866,49.841106 97.3017499,50.664963 98.4603285,51.604678 C100.26968,53.0722305 102.438578,54.8300208 104.722026,57.3055161 C108.683962,61.6006653 111.925753,67.9370072 112.565857,69.2159517 C114.91663,73.912857 116.917191,82.8790723 116.011075,86.7340708 C114.837625,91.726417 111.644107,93.2902861 110.741498,93.7280567 C109.666595,94.6611285 108.551152,94.9263131 107.201769,94.8718825 C105.546271,94.8051041 103.555204,94.2657847 101.432486,93.4597219 C94.3360278,90.7649735 85.8098654,85.0825739 83.2261827,83.3489244 C81.0140891,81.864611 78.6502258,79.7995795 76.2035003,77.664424 C73.5146897,75.3180108 70.7273553,72.8876833 67.9350457,71.0276088 C66.5859203,70.1288998 65.227362,69.2189344 63.8689276,68.3067535 L63.8689276,68.3067535 L62.849883,67.6220806 C62.5103144,67.3938158 62.1708945,67.165548 61.8318235,66.9374528 L61.8318235,66.9374528 L60.3080733,65.9121346 L59.29586,65.2309666 L58.2876498,64.5527308 C48.0203641,57.6478516 38.509252,51.3369062 33.9679755,49.5971656 C27.8249748,47.2438125 21.1956749,45.4739388 15.4573188,43.9427219 C10.1637865,42.5302013 5.6342855,41.3266082 2.97580846,40.0453107 C2.00556754,39.5776868 1.2923869,39.1134292 0.929575904,38.606339 C0.802466653,38.4286822 0.723752238,38.2483501 0.713636429,38.0591342 C0.703816295,37.875449 0.75941412,37.6886002 0.869650869,37.4942522 C2.17279496,35.1968015 5.24766893,34.1075779 9.33512312,33.6160584 Z" id="drop4" transform="translate(58.469603, 64.086687) scale(-1, 1) rotate(-58.000000) translate(-58.469603, -64.086687) "></path>
                    </g>
                </g>
                <g id="Group" transform="translate(799.962481, 86.079288)" fill="url(#radialGradient-18)" stroke="#979797">
                    <g id="drop2-copy" transform="translate(58.500000, 58.500000) scale(-1, 1) rotate(-45.000000) translate(-58.500000, -58.500000) ">
                        <path d="M11.2407561,27.001534 C16.6181004,26.5480486 23.9536977,27.390402 31.6609323,28.2705121 C32.3542521,28.3496842 33.0505652,28.429198 33.7490608,28.5081915 L33.7490608,28.5081915 L34.8506442,28.6320238 C35.4023866,28.6936179 35.9549053,28.7545717 36.5083451,28.814521 L36.5083451,28.814521 L37.6136083,28.9326609 C40.3819354,29.2243151 43.1463551,29.4814922 45.8368049,29.6492014 C50.7649911,29.9563998 86.1743696,38.6228146 92.6461641,45.372289 C93.4363864,46.1964167 94.4185274,47.0386881 95.5407653,47.9995907 C97.2960164,49.5025033 99.399979,51.3028013 101.639233,53.8082316 C105.525361,58.1562984 108.814411,64.4700176 109.464888,65.7438797 C111.853709,70.4220283 114.079629,79.2542695 113.377873,82.984016 C112.47663,87.7740159 109.567308,89.1733364 108.742781,89.5631358 C107.995676,90.1951714 107.400286,90.4463077 106.679443,90.5286216 C105.839827,90.6244983 104.844315,90.5044834 103.744009,90.2316474 C101.009163,89.5535041 97.6573928,87.9319046 94.4096801,86.0864177 L94.4096801,86.0864177 L93.7256434,85.6935813 C88.8419029,82.8598277 84.3066437,79.6172673 82.5654331,78.3649175 C80.4318632,76.830367 78.1334253,74.7231312 75.7544796,72.5441118 C73.1421682,70.1513386 70.4341896,67.6727893 67.7435777,65.7504463 C67.255942,65.4020486 66.7670008,65.052055 66.2774212,64.7010766 L66.2774212,64.7010766 L65.2966822,63.9973231 C63.6607559,62.8223832 62.0193153,61.6386102 60.3903426,60.4638041 L60.3903426,60.4638041 L59.4144272,59.7600148 C58.7649358,59.2916785 58.1180175,58.8253484 57.4747165,58.3620871 L57.4747165,58.3620871 L56.5128707,57.6698181 C47.3671833,51.0914656 39.09526,45.2773935 35.050347,43.5266875 C29.1958473,40.9927622 22.9076883,39.0095046 17.4645957,37.2935422 C12.4440283,35.710783 8.14794346,34.3612296 5.6044763,33.0082816 C4.67049561,32.5114687 3.98036378,32.0262498 3.61852171,31.5147407 C3.48811858,31.3303995 3.40477744,31.1456221 3.38742759,30.9545043 C3.37147755,30.7788063 3.41398811,30.6015807 3.50796082,30.4199399 C4.63367522,28.2440348 7.46411717,27.3200277 11.2407561,27.001534 Z" id="drop4" transform="translate(58.444111, 58.718161) scale(-1, 1) rotate(-58.000000) translate(-58.444111, -58.718161) "></path>
                    </g>
                </g>
                <g id="Group" transform="translate(349.851236, 58.223740)" fill="url(#radialGradient-19)" stroke="#979797">
                    <g id="drop3" transform="translate(43.000000, 65.000000) rotate(-8.000000) translate(-43.000000, -65.000000) ">
                        <path d="M36.0114974,43.3644142 C38.4072831,43.0836483 47.7513452,43.2618886 57.3280559,44.044854 L58.3024991,44.1265679 C58.6274064,44.1545045 58.9523195,44.1831417 59.2769768,44.2124852 L59.2769768,44.2124852 L60.459412,44.3226531 L60.459412,44.3226531 L61.413076,44.4163175 C69.9775713,45.2767213 77.980396,46.6101887 80.3442831,48.6276179 C81.0062689,49.1925813 81.8597464,49.7410848 82.8356987,50.3655584 C84.3364856,51.3258529 86.1361249,52.4750443 87.9521013,54.1912775 C91.0956497,57.1621654 93.3126221,61.8714144 93.7472926,62.8233714 C95.3416761,66.3151766 96.0750712,73.297648 94.7527374,76.5184601 C93.0066186,80.7714864 89.7800099,82.454237 88.8714628,82.9283683 C86.7768789,84.6825669 83.5953134,84.6118827 80.1435031,83.9015028 C73.848127,82.6059193 66.5915324,79.0630043 64.3942438,77.9801473 C62.5171088,77.0550669 60.5714957,75.6775442 58.5572717,74.2545581 C56.3258307,72.678115 54.0122659,71.0464683 51.6220086,69.8804389 C50.3831395,69.2760866 49.1356691,68.6624906 47.8894511,68.0473826 L47.8894511,68.0473826 L46.2874983,67.255742 C45.8910548,67.0596511 45.4951365,66.8637278 45.1000552,66.6682186 C35.7021065,62.0175683 26.7726465,57.6103409 22.4715198,56.7114988 C17.0109536,55.570359 11.0207838,54.9654184 5.83574915,54.4426027 C1.0614091,53.9611981 -3.02344479,53.5547459 -5.34921728,52.8481738 C-6.14410819,52.6066851 -6.7275523,52.35337 -6.9879556,52.0071072 C-7.06301587,51.5893759 -6.98370817,51.4398257 -6.8607538,51.2742559 C-3.20613427,46.3529607 8.89507688,45.5705578 21.9946767,44.6008048 C22.6784086,44.5501886 23.3650924,44.4993539 24.0540128,44.4477163 L24.0540128,44.4477163 L25.1406799,44.3656478 L25.1406799,44.3656478 L26.2307784,44.2817131 L27.3215638,44.1955677 C28.4138502,44.1080392 29.5070883,44.0163595 30.5984146,43.9182314 L30.5984146,43.9182314 L31.6870471,43.8180448 C33.1391999,43.6812026 34.5837734,43.5317315 36.0114974,43.3644142 Z" id="drop4" transform="translate(44.173852, 63.808476) scale(-1, 1) rotate(-58.000000) translate(-44.173852, -63.808476) "></path>
                    </g>
                </g>
                <g id="Group" transform="translate(509.874871, 61.301138)" fill="url(#radialGradient-20)" stroke="#979797">
                    <g id="drop4" transform="translate(41.000000, 65.000000) scale(-1, 1) rotate(-13.000000) translate(-41.000000, -65.000000) ">
                        <path d="M34.7709889,44.379712 C37.0456778,44.0712352 45.673466,44.0186989 54.7191194,44.4969591 L55.8756964,44.5609182 C65.7181203,45.1294402 75.75518,46.3367232 78.4036356,48.5339412 C79.0462775,49.0670913 79.8785437,49.5804682 80.8303557,50.1646718 C82.2897462,51.0604173 84.0398672,52.1321047 85.7941997,53.7510774 C88.8291934,56.5518987 90.9145751,61.0494722 91.3229268,61.9588446 C92.8210796,65.2951322 93.3963404,72.0183951 92.0262316,75.1539009 C90.2116405,79.3066082 86.9872824,81.0019647 86.0795583,81.4798232 C83.9781739,83.217728 80.8363158,83.2206706 77.4385536,82.6051376 C71.254293,81.4848071 64.1684713,78.2129524 62.0231475,77.2125403 C60.1912613,76.358291 58.3012888,75.068327 56.3446195,73.7360656 C54.1738412,72.2580213 51.9231316,70.7284629 49.586936,69.6506934 C49.4086265,69.568433 49.2301369,69.4859824 49.0518798,69.4035418 L49.0518798,69.4035418 L47.9779733,68.9057793 C47.0820429,68.4896547 46.1838534,68.0704967 45.2872673,67.6512301 L45.2872673,67.6512301 L44.2118261,67.1479857 L43.6750586,66.8966341 L42.6043163,66.3951554 C33.6508108,62.2022405 25.221151,58.291824 21.0881904,57.5301283 C15.7226135,56.541264 9.82308377,56.0817288 4.71652414,55.6847665 C0.0152357599,55.3193082 -4.00701098,55.0120422 -6.28733413,54.3778034 C-7.05681999,54.163782 -7.62279649,53.9378209 -7.86995166,53.6120234 C-4.00902508,48.0943352 7.95214143,47.079823 20.9118205,45.8676784 C22.0862857,45.7578283 23.2695609,45.6471536 24.4569929,45.5328661 L24.4569929,45.5328661 L25.5453317,45.427125 C26.4536395,45.3379728 27.363201,45.2462482 28.2726319,45.1506363 L28.2726319,45.1506363 L29.3618067,45.0341619 C31.1786497,44.8364345 32.9877747,44.6215385 34.7709889,44.379712 Z" transform="translate(42.422718, 63.567624) scale(-1, 1) rotate(-58.000000) translate(-42.422718, -63.567624) "></path>
                    </g>
                </g>
                <g id="Group" transform="translate(151.839180, 19.757056)" fill="url(#radialGradient-21)" stroke="#979797">
                    <g id="drop5" transform="translate(35.500000, 44.500000) rotate(-30.000000) translate(-35.500000, -44.500000) ">
                        <path d="M28.445758,26.7806058 C31.9434263,26.6402533 56.6464226,29.7814839 60.8064475,33.7056892 C61.3225266,34.1925132 61.9762843,34.6784683 62.7238878,35.2320599 C63.8704925,36.0811071 65.2454071,37.0974829 66.667876,38.5600528 C68.8420153,40.7954834 70.5788939,44.0493202 71.2126304,45.3097055 C72.7749123,48.5327593 73.7605265,54.0462331 73.0091939,56.4866527 C72.0397902,59.6353935 69.870428,60.7297735 69.2582533,61.0369742 C68.5011679,61.6646024 67.7658802,61.8694607 66.8913056,61.8881325 C65.7992673,61.911447 64.5036324,61.6519775 63.1318062,61.2331062 C58.4983344,59.8183293 53.0286408,56.578681 51.3715432,55.5900201 C49.9552603,54.7450344 48.4611712,53.5404858 46.9142178,52.295948 C45.1964985,50.9140277 43.4153993,49.483508 41.6085609,48.4144406 C41.4588397,48.3258538 41.3089438,48.2370668 41.1592497,48.148312 L41.1592497,48.148312 L40.2570608,47.6124156 C39.2030684,46.985289 38.1450193,46.3523357 37.0934315,45.7228589 L37.0934315,45.7228589 L36.1935488,45.1841665 C29.265845,41.03741 22.746052,37.1660284 19.6435816,36.2084712 C17.365963,35.5054992 14.9768848,34.9262357 12.6437665,34.4216903 L12.6437665,34.4216903 L11.9491012,34.2732439 C10.3951643,33.9449788 8.8746547,33.6481729 7.43879443,33.3679083 C3.96070968,32.6890235 0.984131791,32.1133481 -0.74004878,31.4126422 C-1.32089992,31.1765846 -1.75344947,30.9433342 -1.95978608,30.6604125 C0.0275292558,27.1275443 6.60613325,26.8587174 14.1868531,26.8465644 L14.1868531,26.8465644 L15.047849,26.8466884 C16.1364977,26.8485894 17.2451133,26.8565471 18.3647415,26.8645813 C18.8775525,26.8682611 19.3926709,26.8719574 19.9096163,26.8750997 L19.9096163,26.8750997 L20.8086937,26.8798857 C23.3654829,26.891257 25.9454076,26.8809385 28.445758,26.7806058 Z" id="drop4" transform="translate(35.610459, 44.333027) scale(-1, 1) rotate(-58.000000) translate(-35.610459, -44.333027) "></path>
                    </g>
                </g>
                <g id="Group" transform="translate(725.119468, 21.000000)" fill="url(#radialGradient-22)" stroke="#979797">
                    <g id="drop6" transform="translate(33.500000, 46.000000) scale(-1, 1) rotate(-34.000000) translate(-33.500000, -46.000000) ">
                        <path d="M27.4167227,29.2848209 C30.9478303,29.007422 55.7214288,31.0423197 59.756701,34.6754398 C60.2589521,35.127637 60.9004434,35.5736149 61.6341865,36.0813173 C62.7537854,36.8560067 64.096482,37.7830619 65.4689415,39.139882 C67.8444205,41.488292 69.6026684,45.1227921 69.9484403,45.8569822 C71.2108658,48.5375362 71.9721501,53.8198137 71.1193335,56.2047943 C70.0078032,59.3132916 67.760912,60.4654366 67.1277327,60.7896205 C65.6543635,62.0516326 63.3837397,61.8655502 60.919147,61.2336299 C56.3065265,60.0509564 50.9246903,57.1347406 49.2945805,56.2443472 C47.9024984,55.4839686 46.446599,54.3785851 44.939093,53.2368928 C43.2608108,51.9658651 41.5205241,50.6504828 39.7396059,49.6865783 L39.7396059,49.6865783 L39.2815312,49.4383519 L38.3616476,48.9382605 C37.2045704,48.3080193 36.0428941,47.671125 34.8907918,47.0394804 C27.8919288,43.2023261 21.240935,39.5672928 18.0773717,38.7458755 C14.0622778,37.7033589 9.67865442,37.051069 5.88415522,36.4872663 C2.40500382,35.9703194 -0.572308259,35.5333519 -2.28229365,34.924304 C-2.84526503,34.7237897 -3.26556991,34.5244579 -3.45838728,34.2638188 C-0.998027087,30.3642886 7.26518704,30.1096741 16.3032408,29.8056128 L16.3032408,29.8056128 L17.2195683,29.7750258 C18.4655651,29.733605 19.6952768,29.6927228 20.9276852,29.6446056 L20.9276852,29.6446056 L21.8590923,29.606766 C23.7262809,29.5277242 25.5914991,29.428208 27.4167227,29.2848209 Z" id="drop4" transform="translate(33.976694, 45.495170) scale(-1, 1) rotate(-58.000000) translate(-33.976694, -45.495170) "></path>
                    </g>
                </g>
            </g>
            <g id="boat-top" transform="translate(336.362127, 271.000000)">
                <line x1="210.5" y1="83.5" x2="272.5" y2="83.5" id="Line-9" stroke="#333333" stroke-linecap="square"></line>
                <line x1="18" y1="112" x2="18" y2="210" id="Line-10" stroke="#000000" stroke-width="2" stroke-linecap="square"></line>
                <rect id="Rectangle" stroke="#333333" x="209.5" y="19.5" width="1" height="64"></rect>
                <line x1="210.5" y1="19.5" x2="232.5" y2="19.5" id="Line-8" stroke="#333333" stroke-linecap="square"></line>
                <rect id="Rectangle" stroke="#000000" stroke-width="2" fill="#D8D8D8" x="2" y="85" width="270" height="22"></rect>
                <rect id="Rectangle" stroke="#000000" stroke-width="2" fill="#D8D8D8" x="66" y="20" width="142" height="63"></rect>
                <line x1="16.5" y1="109.5" x2="16.5" y2="210.5" id="Line-7" stroke="#333333" stroke-linecap="square"></line>
                <line x1="0.5" y1="84.5" x2="0.5" y2="107.5" id="Line-5" stroke="#333333" stroke-linecap="square"></line>
                <line x1="0.5" y1="108.5" x2="15.5" y2="108.5" id="Line-6" stroke="#333333" stroke-linecap="square"></line>
                <line x1="0.5" y1="83.5" x2="63.5" y2="83.5" id="Line-4" stroke="#333333" stroke-linecap="square"></line>
                <line x1="64.5" y1="19.5" x2="64.5" y2="83.5" id="Line-3" stroke="#333333" stroke-linecap="square"></line>
                <line x1="41.5" y1="19.5" x2="63.5" y2="19.5" id="Line-2" stroke="#333333" stroke-linecap="square"></line>
                <line x1="41.5" y1="0.5" x2="232.5" y2="0.5" id="Line" stroke="#333333" stroke-linecap="square"></line>
                <rect id="Rectangle" stroke="#000000" stroke-width="2" fill="#D8D8D8" x="42" y="2" width="190" height="16"></rect>
            </g>
            <g id="window2" transform="translate(418.362127, 298.000000)">
                <rect id="Rectangle" stroke="#000000" stroke-width="2" fill-opacity="0.7" fill="url(#linearGradient-23)" x="1" y="1" width="35" height="44"></rect>
                <rect id="dot" stroke="#FFFFFF" fill="#FFFFFF" x="36.5" y="45.5" width="1" height="1"></rect>
            </g>
            <g id="window2" transform="translate(486.362127, 298.000000)">
                <rect id="Rectangle" stroke="#000000" stroke-width="2" fill-opacity="0.7" fill="url(#linearGradient-23)" x="1" y="1" width="35" height="44"></rect>
                <rect id="dot" stroke="#FFFFFF" fill="#FFFFFF" x="36.5" y="45.5" width="1" height="1"></rect>
            </g>
            <g id="ribbon" transform="translate(79.031391, 1035.464173)" fill="url(#radialGradient-24)">
                <path d="M7.46860937,277.535827 L145.318305,218.731573 C195.746184,195.881938 220.960124,184.457121 220.960124,184.457121 C220.960124,184.457121 194.197412,177.495472 140.671989,163.572174 L260.155086,140.204834 L372.960861,129.29167 L474.606373,133.360477 C502.77123,136.627996 527.256141,140.386076 548.061107,144.634716 C568.866072,148.883355 598.459756,155.195842 636.842157,163.572174 L564.935499,189.512935 L779.757003,260.486909 L678.111994,176.370454 L811.895002,155.669405 L704.496239,135.704313 L645.072337,119.079827 L661.735622,63.2760949 C645.139979,47.1006355 598.6873,30.2369338 522.377584,12.6849899 C482.14889,3.43201641 439.533608,-0.418675468 429.930624,0.0358268428 C418.794834,0.562875764 374.025707,0.482468007 366.044992,0.890859661 C348.687786,1.77906816 336.588,3.01318615 323.561696,3.83152356 C305.076497,4.99279915 283.618604,6.31915652 240.326598,15.9913201 C181.775638,29.0725913 136.839785,44.834183 105.51904,63.2760949 C117.167353,98.0812966 122.991509,116.682541 122.991509,119.079827 C122.991509,122.675757 17.3388433,155.669405 1.61738646,155.669405 C-8.86358474,155.669405 31.594456,162.569754 122.991509,176.370454 L7.46860937,277.535827 Z" id="Path"></path>
            </g>
            <g id="flag-pole" transform="translate(406.061165, 0.000000)">
                <g id="Group" transform="translate(0.000000, 14.542175)">
                    <g id="flag">
                        <use fill="black" fill-opacity="1" filter="url(#filter-26)" xlink:href="#path-25"></use>
                        <use stroke-opacity="0.4" stroke="#0A0A0A" stroke-width="1" xlink:href="#path-25"></use>
                    </g>
                    <path d="M63.5,0.697793515 L63.5,5.84893131 C60.2308029,9.47355356 58.0430271,12.9623617 56.9241814,16.3085977 C55.2028652,21.4566985 54.2013096,30.1304976 56.9931051,33.9941759 C58.795384,36.4884224 60.9662766,38.2432951 63.5,39.2666532 L63.5,39.2666532 L63.5,41.2766481 C56.0151107,41.0034473 51.0751495,41.0129047 48.6796312,41.2990598 C46.1679658,41.5990891 43.8041381,42.504511 41.5894074,44.0187486 L41.5894074,44.0187486 L31.2237691,50.1775039 C26.9028286,52.376961 23.6970525,53.5 21.5998435,53.5 C14.9490571,53.5 8.39162152,53.2828601 1.92753791,52.8485507 L1.92753791,52.8485507 L7.70042527,50.0957176 C13.9725374,47.9034422 19.0068447,43.8743134 22.7995246,38.0033821 C23.2377316,37.3250535 23.7485993,36.470386 24.3353788,35.488411 C25.7292609,33.1557504 27.5563613,30.0969444 29.8654185,26.9863352 C32.0550103,24.0366619 33.7751384,21.6776284 35.0263984,19.9095076 C38.6869396,15.5283856 41.8624611,12.2207088 44.5557586,9.98941085 C47.2404082,7.76527742 50.9951041,5.53965832 55.8159294,3.30669946 L55.8159294,3.30669946 L63.5,0.697793515 Z" id="flag-fill" stroke="#FFFFFF" fill="url(#radialGradient-27)"></path>
                    <ellipse id="Oval" fill="#FFFFFF" filter="url(#filter-28)" transform="translate(42.179710, 22.556481) rotate(33.000000) translate(-42.179710, -22.556481) " cx="42.1797105" cy="22.5564815" rx="2" ry="4"></ellipse>
                </g>
                <g id="Group" transform="translate(73.145663, 134.025875)">
                    <g id="flag2" transform="translate(31.000000, 31.000000) scale(-1, 1) rotate(1.000000) translate(-31.000000, -31.000000) ">
                        <g id="flag">
                            <use fill="black" fill-opacity="1" filter="url(#filter-30)" xlink:href="#path-29"></use>
                            <use stroke-opacity="0.4" stroke="#0A0A0A" stroke-width="1" xlink:href="#path-29"></use>
                        </g>
                        <path d="M61.5,0.735147287 L61.5,6.63890187 C58.3298618,10.723801 56.2076673,14.6539381 55.1241226,18.4248857 C53.4673146,24.1909015 52.4885396,33.9201722 55.1799095,38.2543629 C56.9292838,41.071561 59.0397503,43.0492869 61.5,44.2014604 L61.5,44.2014604 L61.5,46.5929383 C54.2520783,46.2854966 49.4680003,46.2971013 47.1470061,46.6197228 C44.7051525,46.9591438 42.4058186,47.981548 40.2522453,49.6948087 L40.2522453,49.6948087 L30.211936,56.6364358 C26.0422908,59.1061082 22.9499095,60.3727273 20.9248484,60.3727273 C14.4190553,60.3727273 8.00549971,60.1230706 1.68418336,59.6237175 L1.68418336,59.6237175 L7.49135846,56.401395 C13.5645951,53.9304246 18.44395,49.393758 22.1173293,42.777021 C22.5414727,42.0130255 23.0359363,41.0503952 23.6038838,39.9444058 C24.9551153,37.3130926 26.7263256,33.8627731 28.9647262,30.3539145 C31.0863332,27.0281387 32.752887,24.3685641 33.964964,22.3754895 C37.5131059,17.4338591 40.5908836,13.7033347 43.2013953,11.1867233 C45.8005632,8.6810477 49.4358079,6.17326118 54.1027301,3.65765608 L54.1027301,3.65765608 L61.5,0.735147287 Z" id="flag-fill" stroke="#FFFFFF" fill="url(#radialGradient-31)"></path>
                        <ellipse id="Oval" fill="#FFFFFF" filter="url(#filter-32)" transform="translate(40.861595, 25.427306) rotate(33.000000) translate(-40.861595, -25.427306) " cx="40.8615945" cy="25.4273064" rx="2.05234901" ry="4.32347266"></ellipse>
                    </g>
                </g>
                <g id="cross">
                    <use fill="#FFFFFF" fill-rule="evenodd" xlink:href="#path-33"></use>
                    <use fill="black" fill-opacity="1" filter="url(#filter-34)" xlink:href="#path-33"></use>
                </g>
            </g>
        </g>
        <g id="logo-copy-2" transform="translate(94.637873, 34.000000)"></g>
        <g id="logo-copy" transform="translate(95.637873, 34.000000)"></g>
    </g>
</svg>